<svg width="12" height="12" viewBox="0 0 12 12" fill="none" xmlns="http://www.w3.org/2000/svg">
<path d="M8.95919 7.16006C8.82969 7.28556 8.77019 7.46706 8.79969 7.64506L9.24419 10.1051C9.28169 10.3136 9.19369 10.5246 9.01919 10.6451C8.84819 10.7701 8.62069 10.7851 8.43419 10.6851L6.21969 9.53006C6.14269 9.48906 6.05719 9.46706 5.96969 9.46456H5.83419C5.78719 9.47156 5.74119 9.48656 5.69919 9.50956L3.48419 10.6701C3.37469 10.7251 3.25069 10.7446 3.12919 10.7251C2.83319 10.6691 2.63569 10.3871 2.68419 10.0896L3.12919 7.62956C3.15869 7.45006 3.09919 7.26756 2.96969 7.14006L1.16419 5.39006C1.01319 5.24356 0.960694 5.02356 1.02969 4.82506C1.09669 4.62706 1.26769 4.48256 1.47419 4.45006L3.95919 4.08956C4.14819 4.07006 4.31419 3.95506 4.39919 3.78506L5.49419 1.54006C5.52019 1.49006 5.55369 1.44406 5.59419 1.40506L5.63919 1.37006C5.66269 1.34406 5.68969 1.32256 5.71969 1.30506L5.77419 1.28506L5.85919 1.25006H6.06969C6.25769 1.26956 6.42319 1.38206 6.50969 1.55006L7.61919 3.78506C7.69919 3.94856 7.85469 4.06206 8.03419 4.08956L10.5192 4.45006C10.7292 4.48006 10.9047 4.62506 10.9742 4.82506C11.0397 5.02556 10.9832 5.24556 10.8292 5.39006L8.95919 7.16006Z" fill="#FFD300"/>
</svg>
