<svg width="14" height="14" viewBox="0 0 14 14" fill="none" xmlns="http://www.w3.org/2000/svg">
<path fill-rule="evenodd" clip-rule="evenodd" d="M4.97674 1.71314C6.25124 0.972597 7.81781 0.985541 9.08035 1.74704C10.3305 2.52405 11.0903 3.91079 11.0832 5.40253C11.0541 6.88448 10.2394 8.27752 9.22098 9.35441C8.6332 9.97875 7.97565 10.5308 7.26178 10.9994C7.18826 11.0419 7.10773 11.0703 7.02416 11.0834C6.94373 11.0799 6.8654 11.0562 6.79623 11.0142C5.70638 10.3102 4.75024 9.41154 3.97382 8.3615C3.32414 7.48498 2.95503 6.42602 2.91663 5.32843C2.91578 3.83383 3.70224 2.45368 4.97674 1.71314ZM5.71322 5.94698C5.92761 6.47551 6.43365 6.82026 6.99506 6.82027C7.36285 6.82291 7.7164 6.67559 7.97693 6.41113C8.23746 6.14668 8.38332 5.78706 8.38202 5.41241C8.38398 4.84054 8.04731 4.32387 7.5292 4.10364C7.01108 3.88341 6.41373 4.00306 6.01606 4.40672C5.61839 4.81039 5.49883 5.41844 5.71322 5.94698Z" fill="#1F75EC"/>
<ellipse opacity="0.4" cx="6.99992" cy="12.25" rx="2.91667" ry="0.583333" fill="#1F75EC"/>
</svg>
