<svg width="50" height="50" viewBox="0 0 50 50" fill="none" xmlns="http://www.w3.org/2000/svg">
<path fill-rule="evenodd" clip-rule="evenodd" d="M14.175 0H35.85C44.325 0 50 5.95 50 14.8V35.2275C50 44.05 44.325 50 35.85 50H14.175C5.7 50 0 44.05 0 35.2275V14.8C0 5.95 5.7 0 14.175 0ZM23.5749 32.475L35.4499 20.6C36.2999 19.75 36.2999 18.375 35.4499 17.5C34.5999 16.65 33.1999 16.65 32.3499 17.5L22.0249 27.825L17.6499 23.45C16.7999 22.6 15.3999 22.6 14.5499 23.45C13.6999 24.3 13.6999 25.675 14.5499 26.55L20.4999 32.475C20.9249 32.9 21.4749 33.1 22.0249 33.1C22.5999 33.1 23.1499 32.9 23.5749 32.475Z" fill="white"/>
</svg>
