<svg width="30" height="30" viewBox="0 0 30 30" fill="none" xmlns="http://www.w3.org/2000/svg">
<path d="M3.0173 11.9508L3.01728 11.9513C3.00034 12.254 3.16945 12.5351 3.4438 12.6615C3.44395 12.6615 3.44409 12.6616 3.44423 12.6617L12.8238 16.964L12.9976 17.0437L13.0774 17.2176L17.3796 26.5956L3.0173 11.9508ZM3.0173 11.9508C3.02539 11.8037 3.07773 11.6626 3.16746 11.5458C3.25718 11.429 3.38011 11.342 3.52012 11.2963L3.521 11.296M3.0173 11.9508L3.521 11.296M3.521 11.296L24.8082 4.30228C24.8088 4.30209 24.8094 4.3019 24.81 4.30171C25.0809 4.21591 25.3695 4.28642 25.5612 4.47881C25.7569 4.67525 25.8262 4.96658 25.7401 5.22987L18.7467 26.519C18.7467 26.519 18.7467 26.5191 18.7466 26.5191C18.7005 26.6593 18.6132 26.7824 18.4961 26.8722C18.3802 26.9612 18.2404 27.0135 18.0947 27.0226L18.0398 27.0245M3.521 11.296L18.0398 27.0245M18.0398 27.0245C17.758 27.0215 17.4998 26.8558 17.3799 26.5963L18.0398 27.0245Z" fill="white" stroke="white"/>
</svg>
