<svg width="380" height="49" viewBox="0 0 380 49" fill="none" xmlns="http://www.w3.org/2000/svg">
<path d="M30.8802 43.0792L13.6791 25.9292C13.475 25.725 13.3307 25.5038 13.2463 25.2656C13.1606 25.0274 13.1177 24.7722 13.1177 24.5C13.1177 24.2278 13.1606 23.9726 13.2463 23.7344C13.3307 23.4962 13.475 23.275 13.6791 23.0708L30.8802 5.8698C31.3566 5.39341 31.9521 5.15521 32.6666 5.15521C33.3812 5.15521 33.9937 5.41042 34.5041 5.92084C35.0146 6.43125 35.2698 7.02674 35.2698 7.7073C35.2698 8.38785 35.0146 8.98334 34.5041 9.49375L19.4979 24.5L34.5041 39.5063C34.9805 39.9826 35.2187 40.5693 35.2187 41.2662C35.2187 41.9644 34.9635 42.5688 34.4531 43.0792C33.9427 43.5896 33.3472 43.8448 32.6666 43.8448C31.9861 43.8448 31.3906 43.5896 30.8802 43.0792Z" fill="#53A777"/>
<path d="M349.12 5.92083L366.321 23.0708C366.525 23.275 366.669 23.4962 366.754 23.7344C366.839 23.9726 366.882 24.2278 366.882 24.5C366.882 24.7722 366.839 25.0274 366.754 25.2656C366.669 25.5038 366.525 25.725 366.321 25.9292L349.12 43.1302C348.643 43.6066 348.048 43.8448 347.333 43.8448C346.619 43.8448 346.006 43.5896 345.496 43.0792C344.985 42.5687 344.73 41.9733 344.73 41.2927C344.73 40.6121 344.985 40.0167 345.496 39.5062L360.502 24.5L345.496 9.49375C345.019 9.01736 344.781 8.43072 344.781 7.73383C344.781 7.03558 345.036 6.43125 345.547 5.92083C346.057 5.41041 346.653 5.1552 347.333 5.1552C348.014 5.1552 348.609 5.41041 349.12 5.92083Z" fill="#53A777"/>
</svg>
