<svg width="19" height="20" viewBox="0 0 19 20" fill="none" xmlns="http://www.w3.org/2000/svg">
<path fill-rule="evenodd" clip-rule="evenodd" d="M2.77075 8.59813C2.77075 4.76491 5.81382 1.66666 9.49473 1.66666C13.186 1.66666 16.2291 4.76491 16.2291 8.59813C16.2291 10.5297 15.5617 12.323 14.4633 13.843C13.2515 15.5196 11.7579 16.9804 10.0767 18.127C9.69191 18.392 9.34465 18.412 8.92236 18.127C7.23158 16.9804 5.73799 15.5196 4.53656 13.843C3.43732 12.323 2.77075 10.5297 2.77075 8.59813ZM7.27868 8.81396C7.27868 10.0981 8.27415 11.1081 9.49473 11.1081C10.7161 11.1081 11.7212 10.0981 11.7212 8.81396C11.7212 7.53983 10.7161 6.48069 9.49473 6.48069C8.27415 6.48069 7.27868 7.53983 7.27868 8.81396Z" fill="#53A777"/>
</svg>
