<svg width="30" height="30" viewBox="0 0 30 30" fill="none" xmlns="http://www.w3.org/2000/svg">
<path d="M25.6627 13.8072L25.7139 14.2655H26.175H27.5C27.9028 14.2655 28.2345 14.5972 28.2345 15C28.2345 15.4028 27.9028 15.7345 27.5 15.7345H26.175H25.7139L25.6627 16.1928C25.3925 18.6114 24.308 20.8663 22.5871 22.5872C20.8662 24.308 18.6114 25.3926 16.1927 25.6627L15.7345 25.7139V26.175V27.5C15.7345 27.9028 15.4028 28.2345 14.9999 28.2345C14.5971 28.2345 14.2654 27.9028 14.2654 27.5V26.175V25.7139L13.8072 25.6627C11.3885 25.3926 9.13367 24.308 7.41281 22.5872C5.69195 20.8663 4.60739 18.6114 4.33723 16.1928L4.28605 15.7345H3.82494H2.49994C2.09713 15.7345 1.76542 15.4028 1.76542 15C1.76542 14.5972 2.09713 14.2655 2.49994 14.2655H3.82494H4.28605L4.33723 13.8072C4.60739 11.3886 5.69195 9.13373 7.41281 7.41287C9.13367 5.69201 11.3885 4.60745 13.8072 4.3373L14.2654 4.28611V3.825V2.5C14.2654 2.09719 14.5971 1.76548 14.9999 1.76548C15.4028 1.76548 15.7345 2.09719 15.7345 2.5V3.825V4.28611L16.1927 4.3373C18.6114 4.60745 20.8662 5.69201 22.5871 7.41287C24.308 9.13373 25.3925 11.3886 25.6627 13.8072ZM10.5154 15C10.5154 12.5222 12.5221 10.5155 14.9999 10.5155C17.4778 10.5155 19.4845 12.5222 19.4845 15C19.4845 17.4778 17.4778 19.4845 14.9999 19.4845C12.5221 19.4845 10.5154 17.4778 10.5154 15ZM5.73446 15C5.73446 20.1222 9.87775 24.2655 14.9999 24.2655C20.1221 24.2655 24.2654 20.1222 24.2654 15C24.2654 9.87782 20.1221 5.73452 14.9999 5.73452C9.87775 5.73452 5.73446 9.87782 5.73446 15Z" fill="#53A777" stroke="#53A777"/>
</svg>
