<svg width="39" height="39" viewBox="0 0 39 39" fill="none" xmlns="http://www.w3.org/2000/svg">
<path fill-rule="evenodd" clip-rule="evenodd" d="M5.6875 16.7664C5.6875 9.29157 11.9338 3.25 19.4893 3.25C27.0662 3.25 33.3125 9.29157 33.3125 16.7664C33.3125 20.533 31.9426 24.0299 29.6879 26.9938C27.2006 30.2632 24.1348 33.1118 20.6839 35.3477C19.8941 35.8644 19.1813 35.9034 18.3145 35.3477C14.8439 33.1118 11.7781 30.2632 9.31206 26.9938C7.05572 24.0299 5.6875 20.533 5.6875 16.7664ZM14.9406 17.1872C14.9406 19.6913 16.9839 21.6607 19.4893 21.6607C21.9964 21.6607 24.0594 19.6913 24.0594 17.1872C24.0594 14.7027 21.9964 12.6374 19.4893 12.6374C16.9839 12.6374 14.9406 14.7027 14.9406 17.1872Z" fill="#F98600"/>
</svg>
