<svg width="20" height="20" viewBox="0 0 20 20" fill="none" xmlns="http://www.w3.org/2000/svg">
<g clip-path="url(#clip0_33_3005)">
<path d="M14.9998 10.8333H10.8332V15C10.8332 15.4583 10.4582 15.8333 9.99984 15.8333C9.5415 15.8333 9.1665 15.4583 9.1665 15V10.8333H4.99984C4.5415 10.8333 4.1665 10.4583 4.1665 9.99999C4.1665 9.54166 4.5415 9.16666 4.99984 9.16666H9.1665V4.99999C9.1665 4.54166 9.5415 4.16666 9.99984 4.16666C10.4582 4.16666 10.8332 4.54166 10.8332 4.99999V9.16666H14.9998C15.4582 9.16666 15.8332 9.54166 15.8332 9.99999C15.8332 10.4583 15.4582 10.8333 14.9998 10.8333Z" fill="#1AB65C"/>
</g>
<defs>
<clipPath id="clip0_33_3005">
<rect width="20" height="20" fill="white"/>
</clipPath>
</defs>
</svg>
